<svg xmlns="http://www.w3.org/2000/svg" width="375" viewBox="0 0 375 375" height="375" version="1.0"><defs><clipPath id="a"><path d="M 152.503906 166.4375 L 222.253906 166.4375 L 222.253906 208.4375 L 152.503906 208.4375 Z M 152.503906 166.4375"/></clipPath></defs><path fill="#FFF" d="M-37.5 -37.5H412.5V412.5H-37.5z"/><path fill="#FFF" d="M-37.5 -37.5H412.5V412.5H-37.5z"/><path fill="#FFF" d="M-37.5 -37.5H412.5V412.5H-37.5z"/><path fill="#004AAD" d="M 187.617188 142.242188 C 162.554688 142.242188 142.242188 162.554688 142.242188 187.617188 C 142.242188 212.675781 162.554688 232.992188 187.617188 232.992188 C 212.675781 232.992188 232.992188 212.675781 232.992188 187.617188 C 232.992188 162.554688 212.675781 142.242188 187.617188 142.242188"/><g clip-path="url(#a)"><path fill="#FFF" d="M 174.171875 192.980469 L 169.453125 198.425781 L 152.546875 181.703125 L 162.976562 181.703125 Z M 212.246094 181.703125 L 198.886719 197.078125 L 188.691406 186.878906 L 174.386719 203.308594 L 179.578125 208.4375 L 188.84375 197.695312 L 199.117188 207.820312 L 222.207031 181.703125 Z M 188.015625 166.4375 L 173.863281 182.472656 L 178.980469 187.765625 L 188.304688 176.8125 L 198.671875 187.1875 L 203.480469 181.699219 Z M 188.015625 166.4375"/></g></svg>