<svg xmlns="http://www.w3.org/2000/svg" width="375" viewBox="0 0 375 375" height="375" version="1.0"><path fill="#FFF" d="M-37.5 -37.5H412.5V412.5H-37.5z"/><path fill="#FFF" d="M-37.5 -37.5H412.5V412.5H-37.5z"/><path fill="#FFF" d="M-37.5 -37.5H412.5V412.5H-37.5z"/><path fill="#004AAD" d="M 187.503906 142.242188 C 162.503906 142.242188 142.242188 162.503906 142.242188 187.503906 C 142.242188 212.5 162.503906 232.765625 187.503906 232.765625 C 212.5 232.765625 232.765625 212.5 232.765625 187.503906 C 232.765625 162.503906 212.5 142.242188 187.503906 142.242188"/><g fill="#FFF"><g><g><path d="M 25.046875 -11.375 C 25.046875 -10.894531 24.929688 -10.476562 24.703125 -10.125 C 24.472656 -9.769531 24.1875 -9.503906 23.84375 -9.328125 C 23.507812 -9.148438 23.179688 -9.0625 22.859375 -9.0625 C 22.554688 -9.0625 22.269531 -9.132812 22 -9.28125 C 21.726562 -9.4375 21.550781 -9.613281 21.46875 -9.8125 L 16.625 -1.71875 C 16.25 -1.09375 15.910156 -0.648438 15.609375 -0.390625 C 15.316406 -0.128906 14.972656 0 14.578125 0 C 13.691406 0 13.1875 -0.570312 13.0625 -1.71875 L 12.4375 -7.578125 L 8.40625 -1.71875 C 7.9375 -1.039062 7.554688 -0.582031 7.265625 -0.34375 C 6.984375 -0.113281 6.65625 0 6.28125 0 C 5.46875 0 4.976562 -0.640625 4.8125 -1.921875 L 3.53125 -10.9375 C 3.488281 -11.195312 3.410156 -11.40625 3.296875 -11.5625 C 3.179688 -11.726562 3.039062 -11.882812 2.875 -12.03125 C 2.75 -12.132812 2.660156 -12.222656 2.609375 -12.296875 C 2.554688 -12.367188 2.53125 -12.453125 2.53125 -12.546875 C 2.46875 -13.035156 2.757812 -13.28125 3.40625 -13.28125 L 8.375 -13.28125 C 8.6875 -13.28125 8.914062 -13.21875 9.0625 -13.09375 C 9.21875 -12.96875 9.289062 -12.800781 9.28125 -12.59375 C 9.28125 -12.488281 9.25 -12.382812 9.1875 -12.28125 C 9.125 -12.175781 9.0625 -12.085938 9 -12.015625 C 8.851562 -11.847656 8.742188 -11.691406 8.671875 -11.546875 C 8.609375 -11.398438 8.59375 -11.207031 8.625 -10.96875 L 9.140625 -6.171875 L 12.125 -10.453125 L 12.078125 -10.9375 C 12.046875 -11.1875 11.976562 -11.390625 11.875 -11.546875 C 11.769531 -11.710938 11.625 -11.867188 11.4375 -12.015625 C 11.300781 -12.128906 11.207031 -12.222656 11.15625 -12.296875 C 11.101562 -12.367188 11.078125 -12.453125 11.078125 -12.546875 C 11.003906 -13.035156 11.296875 -13.28125 11.953125 -13.28125 L 16.9375 -13.28125 C 17.25 -13.28125 17.484375 -13.21875 17.640625 -13.09375 C 17.796875 -12.96875 17.867188 -12.800781 17.859375 -12.59375 C 17.859375 -12.414062 17.765625 -12.222656 17.578125 -12.015625 C 17.441406 -11.847656 17.335938 -11.691406 17.265625 -11.546875 C 17.203125 -11.398438 17.179688 -11.207031 17.203125 -10.96875 L 17.4375 -6.625 L 20.125 -11.328125 C 20.570312 -12.085938 21 -12.617188 21.40625 -12.921875 C 21.820312 -13.222656 22.363281 -13.375 23.03125 -13.375 C 23.625 -13.375 24.109375 -13.191406 24.484375 -12.828125 C 24.859375 -12.472656 25.046875 -11.988281 25.046875 -11.375 Z M 25.046875 -11.375" transform="translate(157.188 193.486)"/></g></g></g><g fill="#FFF"><g><g><path d="M 11.3125 -13.28125 C 12.21875 -13.28125 13.003906 -13.144531 13.671875 -12.875 C 14.347656 -12.601562 14.863281 -12.226562 15.21875 -11.75 C 15.570312 -11.28125 15.75 -10.742188 15.75 -10.140625 C 15.75 -9.796875 15.703125 -9.472656 15.609375 -9.171875 C 15.222656 -7.828125 14.109375 -6.976562 12.265625 -6.625 C 12.910156 -6.4375 13.414062 -6.125 13.78125 -5.6875 C 14.15625 -5.257812 14.34375 -4.726562 14.34375 -4.09375 C 14.34375 -3.800781 14.289062 -3.453125 14.1875 -3.046875 C 13.894531 -2.015625 13.304688 -1.25 12.421875 -0.75 C 11.535156 -0.25 10.28125 0 8.65625 0 L 0.359375 0 C 0.078125 0 -0.132812 -0.046875 -0.28125 -0.140625 C -0.4375 -0.234375 -0.515625 -0.359375 -0.515625 -0.515625 C -0.515625 -0.597656 -0.492188 -0.6875 -0.453125 -0.78125 C -0.398438 -0.925781 -0.3125 -1.035156 -0.1875 -1.109375 C -0.0703125 -1.191406 -0.00390625 -1.238281 0.015625 -1.25 C 0.234375 -1.382812 0.40625 -1.519531 0.53125 -1.65625 C 0.664062 -1.800781 0.78125 -2.035156 0.875 -2.359375 L 3.3125 -10.953125 C 3.363281 -11.128906 3.390625 -11.296875 3.390625 -11.453125 C 3.390625 -11.597656 3.363281 -11.71875 3.3125 -11.8125 C 3.269531 -11.914062 3.207031 -12.035156 3.125 -12.171875 C 3.007812 -12.347656 2.953125 -12.488281 2.953125 -12.59375 C 2.953125 -12.632812 2.96875 -12.707031 3 -12.8125 C 3.050781 -12.976562 3.164062 -13.097656 3.34375 -13.171875 C 3.519531 -13.242188 3.796875 -13.28125 4.171875 -13.28125 Z M 10.421875 -9.640625 C 10.515625 -9.929688 10.5625 -10.203125 10.5625 -10.453125 C 10.5625 -11.148438 10.164062 -11.5 9.375 -11.5 L 8.484375 -11.5 L 7.421875 -7.765625 L 8.296875 -7.765625 C 8.859375 -7.765625 9.300781 -7.898438 9.625 -8.171875 C 9.945312 -8.441406 10.210938 -8.929688 10.421875 -9.640625 Z M 8.953125 -3.765625 C 9.046875 -4.085938 9.09375 -4.382812 9.09375 -4.65625 C 9.09375 -5.363281 8.679688 -5.71875 7.859375 -5.71875 L 6.859375 -5.71875 L 5.71875 -1.796875 L 6.75 -1.796875 C 7.320312 -1.796875 7.78125 -1.9375 8.125 -2.21875 C 8.46875 -2.507812 8.742188 -3.023438 8.953125 -3.765625 Z M 8.953125 -3.765625" transform="translate(183.62 193.486)"/></g></g></g><g fill="#FFF"><g><g><path d="M 9.5625 -13.28125 C 11.550781 -13.28125 13.050781 -12.898438 14.0625 -12.140625 C 15.070312 -11.378906 15.578125 -10.257812 15.578125 -8.78125 C 15.578125 -8.050781 15.445312 -7.207031 15.1875 -6.25 C 14.75 -4.707031 14.15625 -3.484375 13.40625 -2.578125 C 12.664062 -1.671875 11.6875 -1.007812 10.46875 -0.59375 C 9.25 -0.1875 7.6875 0.0078125 5.78125 0 L 0.359375 -0.015625 C 0.078125 -0.015625 -0.132812 -0.0625 -0.28125 -0.15625 C -0.4375 -0.25 -0.515625 -0.375 -0.515625 -0.53125 C -0.515625 -0.613281 -0.492188 -0.703125 -0.453125 -0.796875 C -0.421875 -0.921875 -0.363281 -1.007812 -0.28125 -1.0625 C -0.207031 -1.113281 -0.0976562 -1.1875 0.046875 -1.28125 C 0.253906 -1.394531 0.421875 -1.523438 0.546875 -1.671875 C 0.671875 -1.816406 0.78125 -2.050781 0.875 -2.375 L 3.3125 -10.953125 C 3.363281 -11.128906 3.390625 -11.296875 3.390625 -11.453125 C 3.390625 -11.597656 3.363281 -11.71875 3.3125 -11.8125 C 3.269531 -11.914062 3.207031 -12.035156 3.125 -12.171875 C 3.007812 -12.347656 2.953125 -12.488281 2.953125 -12.59375 C 2.953125 -12.632812 2.96875 -12.707031 3 -12.8125 C 3.050781 -12.976562 3.164062 -13.097656 3.34375 -13.171875 C 3.519531 -13.242188 3.796875 -13.28125 4.171875 -13.28125 Z M 10.078125 -6.6875 C 10.421875 -7.9375 10.59375 -8.921875 10.59375 -9.640625 C 10.59375 -10.335938 10.445312 -10.820312 10.15625 -11.09375 C 9.863281 -11.363281 9.445312 -11.5 8.90625 -11.5 L 8.453125 -11.5 L 5.765625 -1.796875 L 6.25 -1.796875 C 6.851562 -1.796875 7.363281 -1.925781 7.78125 -2.1875 C 8.207031 -2.445312 8.597656 -2.925781 8.953125 -3.625 C 9.316406 -4.320312 9.691406 -5.34375 10.078125 -6.6875 Z M 10.078125 -6.6875" transform="translate(202.41 193.486)"/></g></g></g></svg>