<svg xmlns="http://www.w3.org/2000/svg" width="1440" viewBox="0 0 1440 810" height="810" version="1.0"><defs><clipPath id="a"><path d="M 35.589844 309.945312 L 345.339844 309.945312 L 345.339844 495.945312 L 35.589844 495.945312 Z M 35.589844 309.945312"/></clipPath></defs><path fill="#FFF" d="M-144 -81H1584V891H-144z"/><path fill="#FFF" d="M-144 -81H1584V891H-144z"/><path fill="#004AAD" d="M-144 -81H1584V891H-144z"/><path fill="#FFF" d="M 190.464844 250.21875 C 104.929688 250.21875 35.589844 319.558594 35.589844 405.09375 C 35.589844 490.628906 104.929688 559.96875 190.464844 559.96875 C 276 559.96875 345.339844 490.628906 345.339844 405.09375 C 345.339844 319.558594 276 250.21875 190.464844 250.21875"/><g clip-path="url(#a)"><path fill="#004AAD" d="M 131.816406 427.488281 L 110.867188 451.601562 L 35.785156 377.535156 L 82.089844 377.535156 Z M 300.894531 377.535156 L 241.5625 445.628906 L 196.289062 400.464844 L 132.773438 473.214844 L 155.816406 495.945312 L 196.972656 448.367188 L 242.589844 493.195312 L 345.128906 377.535156 Z M 193.285156 309.945312 L 130.445312 380.949219 L 153.160156 404.390625 L 194.578125 355.882812 L 240.617188 401.820312 L 261.96875 377.527344 Z M 193.285156 309.945312"/></g><g fill="#FFF"><g><g><path d="M 138.976562 -115.148438 L 119.144531 -45.515625 L 106.445312 -90.035156 L 119.714844 -132.84375 C 103.589844 -137.835938 86.898438 -129.84375 82.332031 -115.148438 L 62.496094 -44.804688 L 42.519531 -115.148438 C 37.953125 -129.84375 21.261719 -137.835938 5.28125 -132.84375 L 40.808594 -18.121094 C 42.234375 -13.269531 45.089844 -9.273438 48.65625 -6.136719 C 52.507812 -2.855469 57.21875 -0.285156 62.496094 -0.285156 C 67.777344 -0.285156 72.484375 -2.855469 76.335938 -6.136719 C 79.90625 -9.273438 82.757812 -13.269531 84.1875 -18.121094 L 90.75 -39.382812 L 97.457031 -18.121094 C 98.882812 -13.269531 101.734375 -9.273438 105.304688 -6.136719 C 109.15625 -2.855469 113.863281 -0.285156 119.144531 -0.285156 C 124.421875 -0.285156 129.132812 -2.855469 132.984375 -6.136719 C 136.550781 -9.273438 139.40625 -13.269531 140.832031 -18.121094 L 176.363281 -132.84375 C 160.238281 -137.835938 143.542969 -129.84375 138.976562 -115.148438 Z M 138.976562 -115.148438" transform="translate(404.506 480)"/></g></g></g><g fill="#FFF"><g><g><path d="M 102.878906 -122.425781 C 102.023438 -124.28125 100.59375 -126.136719 98.597656 -127.847656 C 93.175781 -133.128906 85.613281 -135.695312 77.480469 -136.410156 C 72.628906 -136.835938 58.5 -137.121094 53.078125 -137.121094 C 47.230469 -137.121094 41.949219 -136.835938 36.8125 -136.410156 C 20.546875 -134.839844 7.132812 -123.425781 7.132812 -107.445312 L 7.132812 -27.394531 C 7.132812 -21.832031 8.703125 -16.835938 11.414062 -12.414062 C 12.269531 -10.558594 13.699219 -8.703125 15.695312 -6.992188 C 21.117188 -1.710938 28.679688 0.855469 36.8125 1.570312 C 41.664062 1.996094 46.800781 2.28125 52.222656 2.28125 C 58.074219 2.28125 72.34375 1.996094 77.480469 1.570312 C 93.746094 0 107.160156 -11.414062 107.160156 -27.394531 L 107.160156 -107.445312 C 107.160156 -113.007812 105.589844 -118.003906 102.878906 -122.425781 Z M 77.480469 -36.527344 C 76.765625 -32.105469 73.769531 -28.964844 69.203125 -28.964844 L 69.0625 -28.824219 L 45.089844 -28.824219 C 40.378906 -28.824219 37.527344 -32.105469 36.8125 -36.527344 L 36.8125 -99.167969 C 37.527344 -103.589844 40.378906 -106.730469 45.089844 -106.730469 L 69.203125 -106.730469 C 73.769531 -106.730469 76.765625 -103.589844 77.480469 -99.167969 Z M 77.480469 -36.527344" transform="translate(583.865 480)"/></g></g></g><g fill="#FFF"><g><g><path d="M 81.472656 -45.089844 C 84.898438 -46.945312 88.039062 -49.085938 90.890625 -51.796875 C 95.316406 -55.933594 98.882812 -61.070312 101.449219 -67.207031 C 103.875 -73.199219 105.160156 -80.332031 105.160156 -88.324219 L 105.160156 -88.75 C 105.160156 -96.3125 104.019531 -103.019531 101.734375 -109.011719 C 99.453125 -115.007812 96.171875 -120 91.890625 -124.136719 C 87.609375 -128.277344 82.472656 -131.414062 76.480469 -133.554688 C 70.34375 -135.695312 63.636719 -136.695312 56.21875 -136.695312 L 36.671875 -136.695312 C 21.972656 -136.695312 5.851562 -122.855469 5.851562 -105.730469 L 5.851562 -0.285156 C 23.828125 -0.285156 38.527344 -17.265625 38.527344 -38.097656 L 38.527344 -39.238281 L 51.9375 -39.238281 L 69.632812 -12.984375 C 78.621094 0.429688 94.746094 3.566406 108.15625 -5.421875 Z M 38.527344 -68.917969 L 38.527344 -105.160156 L 53.792969 -105.160156 C 59.644531 -105.160156 64.351562 -103.589844 67.632812 -100.59375 C 70.914062 -97.457031 72.628906 -93.03125 72.628906 -87.183594 L 72.628906 -86.753906 C 72.628906 -81.1875 70.914062 -76.910156 67.632812 -73.625 C 64.351562 -70.488281 59.785156 -68.917969 53.9375 -68.917969 Z M 38.527344 -68.917969" transform="translate(698.443 480)"/></g></g></g><g fill="#FFF"><g><g><path d="M 28.109375 -133.699219 C 12.128906 -133.699219 -0.714844 -121.996094 -0.714844 -104.589844 L 36.527344 -104.589844 L 36.527344 -0.285156 C 53.792969 -0.285156 67.777344 -13.128906 67.777344 -29.109375 L 67.777344 -104.589844 L 76.195312 -104.589844 C 92.035156 -104.589844 105.019531 -116.433594 105.019531 -133.699219 Z M 28.109375 -133.699219" transform="translate(811.451 480)"/></g></g></g><g fill="#FFF"><g><g><path d="M 76.195312 -104.875 L 76.195312 -80.332031 L 39.238281 -80.332031 L 39.238281 -134.269531 C 21.546875 -134.269531 7.277344 -121.140625 7.277344 -104.875 L 7.277344 -80.332031 L 7.132812 -80.332031 C 7.132812 -79.191406 7.132812 -78.050781 7.277344 -76.910156 L 7.277344 1.710938 C 24.96875 1.710938 39.238281 -11.414062 39.238281 -27.679688 L 39.238281 -52.222656 L 76.195312 -52.222656 L 76.195312 1.710938 C 93.886719 1.710938 108.15625 -11.414062 108.15625 -27.679688 L 108.15625 -134.269531 C 90.464844 -134.269531 76.195312 -121.140625 76.195312 -104.875 Z M 76.195312 -104.875" transform="translate(916.04 480)"/></g></g></g><g fill="#FFF"><g><g><path d="M 36.671875 -53.363281 L 67.492188 -53.363281 L 74.484375 -82.757812 L 36.671875 -82.757812 L 36.671875 -103.019531 L 65.351562 -103.019531 C 82.902344 -103.019531 94.316406 -117.289062 94.316406 -134.695312 L 36.527344 -134.695312 C 19.40625 -134.695312 5.566406 -120.855469 5.566406 -103.875 L 5.566406 -30.535156 C 5.566406 -13.839844 19.121094 -0.285156 35.816406 -0.285156 L 56.503906 -0.285156 C 74.054688 -0.285156 87.46875 -14.410156 87.46875 -31.960938 L 36.671875 -31.960938 Z M 36.671875 -53.363281" transform="translate(1031.76 480)"/></g></g></g><g fill="#FFF"><g><g><path d="M 87.039062 -130.558594 C 77.050781 -125.707031 70.058594 -116.148438 70.058594 -105.019531 L 70.058594 -33.675781 C 70.058594 -29.535156 66.777344 -25.96875 62.640625 -25.96875 C 62.640625 -25.96875 62.640625 -25.96875 62.496094 -25.96875 L 62.496094 -25.828125 L 58.644531 -25.96875 L 46.375 -25.96875 C 44.089844 -25.96875 42.378906 -26.683594 40.953125 -27.824219 C 39.382812 -29.25 38.667969 -31.25 38.667969 -33.390625 L 38.667969 -105.019531 C 38.667969 -115.863281 32.105469 -125.421875 22.257812 -130.273438 C 17.835938 -132.558594 12.699219 -133.839844 7.132812 -133.839844 L 7.132812 -28.679688 C 7.132812 -21.117188 10.273438 -14.269531 15.410156 -9.132812 C 15.980469 -8.417969 16.550781 -7.847656 17.265625 -7.417969 C 22.542969 -2.140625 29.964844 0.429688 38.097656 1.140625 C 42.949219 1.570312 48.085938 1.855469 53.507812 1.855469 C 54.648438 1.855469 56.363281 1.855469 58.214844 1.855469 C 64.921875 1.710938 66.777344 1.425781 70.773438 1.140625 C 75.910156 0.714844 80.617188 -0.855469 84.898438 -2.996094 C 94.886719 -7.992188 101.59375 -17.550781 101.59375 -28.679688 L 101.59375 -133.839844 C 96.3125 -133.839844 91.460938 -132.699219 87.039062 -130.558594 Z M 87.039062 -130.558594" transform="translate(1132.07 480)"/></g></g></g><g fill="#FFF"><g><g><path d="M 130.558594 -134.410156 L 97.3125 -134.410156 L 68.917969 -92.320312 L 40.523438 -134.695312 L 40.378906 -134.554688 C 21.972656 -134.554688 7.132812 -119.714844 7.132812 -101.308594 L 7.132812 0.285156 C 25.542969 0.285156 40.378906 -14.554688 40.378906 -32.960938 L 40.378906 -78.90625 L 68.917969 -46.375 L 97.3125 -80.191406 L 97.3125 0.285156 C 115.578125 0.285156 130.558594 -14.554688 130.558594 -32.960938 Z M 130.558594 -134.410156" transform="translate(1241.083 480)"/></g></g></g></svg>